<?xml version="1.0" encoding="utf-8"?>
<!-- Generator: Adobe Illustrator 28.0.0, SVG Export Plug-In . SVG Version: 6.00 Build 0)  -->
<svg version="1.1" id="Layer_1" xmlns="http://www.w3.org/2000/svg" xmlns:xlink="http://www.w3.org/1999/xlink" x="0px" y="0px"
	 viewBox="0 0 1000 1000" style="enable-background:new 0 0 1000 1000;" xml:space="preserve">
<style type="text/css">
	.st0{fill:#FFFFFF;}
	.st1{fill:url(#SVGID_1_);}
	.st2{fill:url(#SVGID_00000103267284968454490050000012366281574181785218_);}
	.st3{fill:url(#SVGID_00000136377592944299961040000018159332601860799413_);}
</style>
<g>
	<rect y="0" class="st0" width="1000" height="1000"/>
	<g>
		
			<linearGradient id="SVGID_1_" gradientUnits="userSpaceOnUse" x1="651.4997" y1="198.4391" x2="314.5607" y2="734.6821" gradientTransform="matrix(1 0 0 -1 0 997.7323)">
			<stop  offset="0" style="stop-color:#5D62FF"/>
			<stop  offset="1" style="stop-color:#5D62FF;stop-opacity:0"/>
		</linearGradient>
		<path class="st1" d="M761.8,685.7L455.4,379.3L302.2,532.5l306.4,306.4L761.8,685.7z"/>
		
			<radialGradient id="SVGID_00000111896185762703734020000007887002047307283337_" cx="371.9435" cy="568.9343" r="1" gradientTransform="matrix(-495.353 495.353 501.2956 501.2956 -100098.3438 -469122.4688)" gradientUnits="userSpaceOnUse">
			<stop  offset="0" style="stop-color:#00D1FF"/>
			<stop  offset="0.9524" style="stop-color:#9124FF"/>
		</radialGradient>
		<path style="fill:url(#SVGID_00000111896185762703734020000007887002047307283337_);" d="M701.8,133L497.9,336.9
			c-23.4,23.4-61.5,23.4-84.9,0L302.2,226.2L149,379.4l153.2,153.2l0,0c84.6,84.6,221.8,84.6,306.4,0l0,0L855,286.2L701.8,133z"/>
		
			<linearGradient id="SVGID_00000180365356891475366700000000493634794389249450_" gradientUnits="userSpaceOnUse" x1="212.0939" y1="240.3707" x2="757.7419" y2="674.2457" gradientTransform="matrix(1 0 0 -1 0 997.7323)">
			<stop  offset="0" style="stop-color:#5D62FF"/>
			<stop  offset="1" style="stop-color:#5D62FF;stop-opacity:0"/>
		</linearGradient>
		<path style="fill:url(#SVGID_00000180365356891475366700000000493634794389249450_);" d="M455.4,685.7L302.2,532.5L149,685.7
			l153.2,153.2L455.4,685.7z"/>
	</g>
</g>
</svg>
