<?xml version="1.0" encoding="utf-8"?>
<!-- Generator: Adobe Illustrator 28.0.0, SVG Export Plug-In . SVG Version: 6.00 Build 0)  -->
<svg version="1.1" id="Layer_1" xmlns="http://www.w3.org/2000/svg" xmlns:xlink="http://www.w3.org/1999/xlink" x="0px" y="0px"
	 viewBox="0 0 1000 500" style="enable-background:new 0 0 1000 500;" xml:space="preserve">
<style type="text/css">
	.st0{fill:url(#SVGID_1_);}
	.st1{fill:url(#SVGID_00000094586082543520088440000003255349756279968139_);}
	.st2{fill:url(#SVGID_00000101790368608366237260000001286323801284109714_);}
</style>
<g>
	
		<linearGradient id="SVGID_1_" gradientUnits="userSpaceOnUse" x1="281.7508" y1="169.3839" x2="192.0678" y2="312.1169" gradientTransform="matrix(1 0 0 -1 0 497.7323)">
		<stop  offset="0" style="stop-color:#5D62FF"/>
		<stop  offset="1" style="stop-color:#5D62FF;stop-opacity:0"/>
	</linearGradient>
	<path class="st0" d="M311.1,298.1l-81.6-81.6l-40.8,40.8l81.6,81.6L311.1,298.1z"/>
	
		<radialGradient id="SVGID_00000039823945500695992360000002931707583046772630_" cx="372.7357" cy="317.6713" r="1" gradientTransform="matrix(-131.8485 131.8485 133.4303 133.4303 7095.6138 -91329.5078)" gradientUnits="userSpaceOnUse">
		<stop  offset="0" style="stop-color:#00D1FF"/>
		<stop  offset="0.9524" style="stop-color:#9124FF"/>
	</radialGradient>
	<path style="fill:url(#SVGID_00000039823945500695992360000002931707583046772630_);" d="M295.1,151l-54.3,54.3
		c-6.2,6.2-16.4,6.2-22.6,0l-29.5-29.5L148,216.6l40.8,40.8l0,0c22.5,22.5,59,22.5,81.6,0l0,0l65.6-65.6L295.1,151z"/>
	
		<linearGradient id="SVGID_00000142153913767685879520000013039681646133247421_" gradientUnits="userSpaceOnUse" x1="164.7936" y1="180.5451" x2="310.0306" y2="296.0301" gradientTransform="matrix(1 0 0 -1 0 497.7323)">
		<stop  offset="0" style="stop-color:#5D62FF"/>
		<stop  offset="1" style="stop-color:#5D62FF;stop-opacity:0"/>
	</linearGradient>
	<path style="fill:url(#SVGID_00000142153913767685879520000013039681646133247421_);" d="M229.5,298.1l-40.8-40.8L148,298.1
		l40.8,40.8L229.5,298.1z"/>
	<g>
		<path d="M473.1,347.3h-40.4V221.9c-2.4,0.9-6,1.4-10.7,1.4h-32.8V190h29.4c4.9,0,8.5-1.9,11.1-5.8c2.5-3.8,3.8-8.6,3.8-14.2V151
			h39.5L473.1,347.3L473.1,347.3z"/>
		<path d="M497.8,151h51l38.7,61.7l39.5-61.7h46l-61.1,96.2l64.2,100.1h-51.3l-41.8-65.9l-42.6,65.9h-45.7l64.2-100.1L497.8,151z"/>
		<path d="M814.2,159c10.7,5.3,19.1,12.9,24.9,22.9c5.9,9.9,8.8,21.4,8.8,34.5c0,13.1-2.9,24.5-8.8,34.3
			c-5.9,9.8-14.2,17.4-24.9,22.7c-10.7,5.3-23.1,8-37.1,8h-37.8v65.9h-42V151h79.9C791.1,151,803.5,153.7,814.2,159L814.2,159z
			 M773.1,246.3c9.9,0,17.8-2.7,23.6-8.1c5.8-5.4,8.7-12.7,8.7-21.9c0-9.2-2.9-16.7-8.7-22.1c-5.8-5.4-13.6-8.1-23.6-8.1h-33.9v60.3
			H773.1z"/>
	</g>
</g>
</svg>
